<svg width="459" height="311" viewBox="0 0 459 311" fill="none" xmlns="http://www.w3.org/2000/svg">
<rect x="78" y="79" width="300" height="150" rx="23" fill="#E5E5E5"/>
<g filter="url(#filter0_d_2_92)">
<rect x="91" y="91" width="275" height="127" rx="23" fill="white"/>
</g>
<rect x="91" y="91" width="275" height="127" rx="23" fill="white" fill-opacity="0.2"/>
<path d="M121.159 175.368L127.327 175.316L127.858 140.079L121 139.974V139L135.222 139.158L147.795 163.395L156.594 139.263L172.118 139.421V140.395L166.616 140.342C166.598 140.5 166.571 140.833 166.536 141.342C166.518 141.833 166.483 142.605 166.43 143.658C166.394 144.711 166.35 146.088 166.297 147.789C166.244 149.491 166.182 151.623 166.111 154.184C166.04 156.728 165.969 159.754 165.898 163.263C165.827 166.772 165.756 170.86 165.685 175.526H172.225V176.5H149.47V175.526H155.743L156.381 142.605L143.755 177.053L128.682 148.368L128.284 175.316L134.185 175.263V176.237L121.159 176.342V175.368Z" fill="#6F55A3"/>
<path d="M195.803 177.421C196.193 177.386 196.565 177.193 196.92 176.842C197.221 176.544 197.531 176.07 197.85 175.421C198.169 174.754 198.435 173.807 198.648 172.579L199.631 172.684C199.383 174.14 199.046 175.254 198.621 176.026C198.214 176.798 197.797 177.36 197.372 177.711C196.876 178.132 196.353 178.36 195.803 178.395C195.378 178.395 194.829 178.333 194.155 178.211C193.5 178.088 192.844 177.868 192.188 177.553C191.532 177.254 190.93 176.851 190.381 176.342C189.831 175.833 189.45 175.184 189.238 174.395C188.511 175.605 187.536 176.588 186.313 177.342C185.091 178.114 183.699 178.5 182.14 178.5C181.36 178.5 180.572 178.412 179.774 178.237C178.977 178.061 178.241 177.772 177.568 177.368C176.912 176.965 176.372 176.439 175.946 175.789C175.539 175.123 175.335 174.298 175.335 173.316C175.335 172.088 175.574 171.026 176.053 170.132C176.549 169.219 177.204 168.465 178.02 167.868C178.835 167.254 179.765 166.798 180.811 166.5C181.856 166.202 182.937 166.053 184.054 166.053C184.816 166.053 185.551 166.14 186.26 166.316C186.987 166.491 187.722 166.798 188.467 167.237C188.502 166.342 188.573 165.447 188.679 164.553C188.803 163.658 188.91 162.825 188.998 162.053C189.051 161.596 189.087 161.228 189.105 160.947C189.14 160.667 189.167 160.439 189.184 160.263C189.202 160.088 189.211 159.956 189.211 159.868C189.229 159.781 189.238 159.702 189.238 159.632C189.238 158.035 188.945 156.763 188.36 155.816C187.775 154.868 186.996 154.395 186.021 154.395C185.56 154.43 185.091 154.509 184.612 154.632C184.134 154.754 183.699 154.93 183.31 155.158C182.92 155.368 182.601 155.64 182.353 155.974C182.105 156.289 181.98 156.667 181.98 157.105C181.98 157.579 182.131 157.956 182.432 158.237C182.734 158.5 183.061 158.772 183.416 159.053C183.788 159.316 184.125 159.623 184.426 159.974C184.727 160.325 184.878 160.807 184.878 161.421C184.878 162.07 184.772 162.614 184.559 163.053C184.364 163.474 184.098 163.816 183.761 164.079C183.425 164.342 183.044 164.535 182.618 164.658C182.193 164.763 181.768 164.816 181.342 164.816C180.899 164.816 180.456 164.746 180.013 164.605C179.588 164.447 179.198 164.211 178.844 163.895C178.507 163.579 178.223 163.167 177.993 162.658C177.78 162.149 177.674 161.535 177.674 160.816C177.674 159.851 177.913 158.93 178.392 158.053C178.87 157.175 179.499 156.404 180.279 155.737C181.059 155.07 181.945 154.535 182.937 154.132C183.93 153.711 184.94 153.482 185.968 153.447C186.925 153.447 187.962 153.64 189.078 154.026C190.212 154.412 191.267 155.07 192.241 156C193.234 156.93 194.058 158.175 194.714 159.737C195.369 161.298 195.697 163.254 195.697 165.605C195.697 166.711 195.653 167.763 195.564 168.763C195.493 169.763 195.414 170.693 195.325 171.553C195.236 172.395 195.148 173.167 195.059 173.868C194.988 174.57 194.953 175.175 194.953 175.684C194.953 176.193 194.997 176.596 195.086 176.895C195.192 177.193 195.396 177.368 195.697 177.421H195.803ZM188.786 173C188.679 172.404 188.6 171.781 188.546 171.132C188.493 170.465 188.467 169.798 188.467 169.132V168.421C187.97 168.018 187.43 167.719 186.845 167.526C186.278 167.333 185.764 167.237 185.303 167.237C184.187 167.237 183.336 167.693 182.751 168.605C182.167 169.518 181.874 170.728 181.874 172.237C181.874 172.868 181.936 173.456 182.06 174C182.202 174.544 182.388 175.018 182.618 175.421C182.867 175.807 183.159 176.114 183.496 176.342C183.85 176.553 184.24 176.658 184.665 176.658C185.091 176.658 185.498 176.553 185.888 176.342C186.296 176.132 186.677 175.86 187.031 175.526C187.386 175.175 187.713 174.781 188.015 174.342C188.316 173.904 188.573 173.456 188.786 173Z" fill="#6F55A3"/>
<path d="M210.716 177.368C209.635 177.368 208.59 177.228 207.58 176.947C206.569 176.684 205.648 176.307 204.815 175.816C204 175.307 203.3 174.711 202.715 174.026C202.148 173.325 201.767 172.553 201.572 171.711C201.572 171.219 201.643 170.763 201.784 170.342C201.944 169.921 202.157 169.553 202.422 169.237C202.706 168.921 203.034 168.675 203.406 168.5C203.778 168.307 204.177 168.211 204.602 168.211C205.116 168.211 205.621 168.36 206.117 168.658C206.614 168.956 207.039 169.412 207.393 170.026C207.677 170.535 207.881 171.044 208.005 171.553C208.147 172.061 208.253 172.553 208.324 173.026C208.412 173.5 208.483 173.947 208.536 174.368C208.607 174.772 208.714 175.123 208.855 175.421C209.015 175.719 209.236 175.956 209.52 176.132C209.804 176.307 210.202 176.395 210.716 176.395C211.549 176.395 212.267 176.316 212.869 176.158C213.472 176 213.968 175.781 214.358 175.5C214.748 175.219 215.031 174.904 215.209 174.553C215.404 174.202 215.501 173.825 215.501 173.421C215.501 172.965 215.377 172.5 215.129 172.026C214.881 171.553 214.518 171.114 214.039 170.711C213.561 170.289 212.958 169.912 212.231 169.579C211.523 169.246 210.69 169 209.733 168.842C208.652 168.667 207.65 168.404 206.729 168.053C205.825 167.702 205.036 167.237 204.363 166.658C203.69 166.061 203.158 165.342 202.768 164.5C202.396 163.64 202.21 162.614 202.21 161.421C202.21 160.228 202.476 159.175 203.007 158.263C203.557 157.333 204.257 156.553 205.107 155.921C205.958 155.289 206.915 154.807 207.978 154.474C209.042 154.14 210.096 153.974 211.142 153.974C211.585 153.974 212.099 154.009 212.683 154.079C213.268 154.132 213.862 154.237 214.464 154.395C215.085 154.553 215.696 154.763 216.299 155.026C216.901 155.289 217.433 155.623 217.894 156.026C218.372 156.43 218.753 156.912 219.037 157.474C219.32 158.035 219.462 158.684 219.462 159.421C219.462 159.842 219.382 160.237 219.223 160.605C219.081 160.974 218.877 161.298 218.611 161.579C218.363 161.842 218.062 162.053 217.707 162.211C217.371 162.368 217.016 162.447 216.644 162.447C215.794 162.447 215.147 162.263 214.704 161.895C214.278 161.526 213.968 161.061 213.773 160.5C213.578 159.939 213.445 159.342 213.375 158.711C213.321 158.061 213.233 157.456 213.109 156.895C212.985 156.333 212.781 155.868 212.497 155.5C212.231 155.132 211.78 154.947 211.142 154.947C209.936 155.035 208.988 155.325 208.297 155.816C207.624 156.289 207.287 156.93 207.287 157.737C207.287 158.263 207.402 158.781 207.633 159.289C207.863 159.781 208.191 160.237 208.616 160.658C209.059 161.079 209.591 161.447 210.211 161.763C210.831 162.061 211.523 162.272 212.285 162.395C213.33 162.57 214.331 162.851 215.288 163.237C216.245 163.623 217.087 164.114 217.814 164.711C218.558 165.307 219.143 166.009 219.568 166.816C220.011 167.605 220.233 168.482 220.233 169.447C220.233 170.412 219.976 171.368 219.462 172.316C218.966 173.263 218.283 174.114 217.415 174.868C216.547 175.605 215.537 176.202 214.385 176.658C213.233 177.132 212.01 177.368 210.716 177.368Z" fill="#6F55A3"/>
<path d="M222.359 175.632H226.453L227.144 141.632L222.466 141.526V140.553L235.092 140.763L234.561 165.553L246.815 154.237L240.542 154.132V153.158L253.674 153.395V154.342L248.065 154.289L248.171 154.342L241.366 160.658L251.228 175.684H254.764V176.658H239.293V175.684H242.243L235.97 165.658L234.561 166.974L234.348 175.632H236.794V176.605H222.359V175.632Z" fill="#6F55A3"/>
<path d="M274.222 186L257.847 185.605V180.605H274.222V186Z" fill="#6F55A3"/>
<path d="M278.847 175.579H285.121L285.28 140.237L278.475 140.026V139.053L301.708 139.737V140.711L295.993 140.553C295.975 140.781 295.949 141.184 295.913 141.763C295.878 142.342 295.843 143.184 295.807 144.289C295.772 145.395 295.719 146.807 295.648 148.526C295.594 150.246 295.541 152.368 295.488 154.895C295.435 157.404 295.373 160.36 295.302 163.763C295.231 167.167 295.16 171.105 295.089 175.579H301.602V176.553H278.847V175.579Z" fill="#6F55A3"/>
<path d="M303.224 153.263L316.568 152.947L316.409 160.132C316.728 159.342 317.091 158.588 317.499 157.868C317.924 157.132 318.402 156.474 318.934 155.895C319.466 155.316 320.059 154.842 320.715 154.474C321.371 154.088 322.097 153.851 322.895 153.763C323.905 153.763 324.853 153.947 325.739 154.316C326.625 154.667 327.432 155.158 328.158 155.789C328.902 156.404 329.558 157.132 330.125 157.974C330.692 158.816 331.171 159.711 331.561 160.658C331.951 161.605 332.234 162.579 332.411 163.579C332.589 164.561 332.659 165.526 332.624 166.474C332.606 167.456 332.58 168.465 332.544 169.5C332.509 170.395 332.465 171.386 332.411 172.474C332.376 173.544 332.323 174.596 332.252 175.632L336 175.684V176.658L321.247 176.342V175.368L324.144 175.421C324.569 170.737 324.676 165.991 324.463 161.184C324.516 158.991 324.392 157.395 324.091 156.395C323.807 155.395 323.205 154.877 322.283 154.842C321.982 154.93 321.583 155.096 321.087 155.342C320.591 155.588 320.059 156.018 319.492 156.632C318.943 157.228 318.385 158.053 317.818 159.105C317.268 160.14 316.781 161.482 316.355 163.132L316.09 175.368H318.854V176.342H305.031V175.368H307.424L307.955 154.132L303.224 154.237V153.263Z" fill="#6F55A3"/>
<path d="M172 156.731V153.696C172 151.013 168.681 149.757 166.905 151.767C166.434 152.3 166.175 152.984 166.175 153.694V162.31C166.175 162.621 168.344 161.272 170.25 160.015C171.352 159.289 172 158.051 172 156.731Z" fill="white" fill-opacity="0.8" stroke="black"/>
<path d="M122 156.731V153.696C122 151.013 125.319 149.757 127.095 151.767C127.566 152.3 127.825 152.984 127.825 153.694V162.31C127.825 162.621 125.656 161.272 123.75 160.015C122.648 159.289 122 158.051 122 156.731Z" fill="white" fill-opacity="0.8" stroke="black"/>
<path d="M148.226 146.962L162.511 148.167C164.583 148.342 166.175 150.074 166.175 152.153V152.931V159.699V163.596C166.175 165.312 165.08 166.837 163.454 167.386L149.126 172.223C148.332 172.491 147.473 172.503 146.672 172.257L130.651 167.335C128.971 166.819 127.825 165.268 127.825 163.512V159.699V152.931V152.181C127.825 150.091 129.435 148.353 131.519 148.193L147.583 146.959C147.797 146.943 148.012 146.944 148.226 146.962Z" fill="white" fill-opacity="0.8"/>
<path d="M127.825 152.931V152.181C127.825 150.091 129.435 148.353 131.519 148.193L147.583 146.959C147.797 146.943 148.012 146.944 148.226 146.962L162.511 148.167C164.583 148.342 166.175 150.074 166.175 152.153V152.931M127.825 152.931L147.096 156.714C147.629 156.818 148.178 156.813 148.71 156.699L166.175 152.931M127.825 152.931V159.699M166.175 152.931V159.699M166.175 159.699V163.596C166.175 165.312 165.08 166.837 163.454 167.386L149.126 172.223C148.332 172.491 147.473 172.503 146.672 172.257L130.651 167.335C128.971 166.819 127.825 165.268 127.825 163.512V159.699M166.175 159.699L148.76 163.701C148.196 163.83 147.611 163.836 147.045 163.718L127.825 159.699" stroke="black"/>
<defs>
<filter id="filter0_d_2_92" x="0" y="0" width="459" height="311" filterUnits="userSpaceOnUse" color-interpolation-filters="sRGB">
<feFlood flood-opacity="0" result="BackgroundImageFix"/>
<feColorMatrix in="SourceAlpha" type="matrix" values="0 0 0 0 0 0 0 0 0 0 0 0 0 0 0 0 0 0 127 0" result="hardAlpha"/>
<feOffset dx="1" dy="1"/>
<feGaussianBlur stdDeviation="46"/>
<feComposite in2="hardAlpha" operator="out"/>
<feColorMatrix type="matrix" values="0 0 0 0 0 0 0 0 0 0 0 0 0 0 0 0 0 0 0.25 0"/>
<feBlend mode="normal" in2="BackgroundImageFix" result="effect1_dropShadow_2_92"/>
<feBlend mode="normal" in="SourceGraphic" in2="effect1_dropShadow_2_92" result="shape"/>
</filter>
</defs>
</svg>
