<svg id="eWkpreINs0Y1" xmlns="http://www.w3.org/2000/svg" xmlns:xlink="http://www.w3.org/1999/xlink" viewBox="0 0 264 105" shape-rendering="geometricPrecision" text-rendering="geometricPrecision"><style><![CDATA[#eWkpreINs0Y13_to {animation: eWkpreINs0Y13_to__to 3000ms linear infinite normal forwards}@keyframes eWkpreINs0Y13_to__to { 0% {transform: translate(207.319122px,21.295601px)} 16.666667% {transform: translate(207.83px,27.198499px)} 33.333333% {transform: translate(207.319122px,21.295601px)} 50% {transform: translate(207.83px,27.198499px)} 66.666667% {transform: translate(207.83px,20.295601px)} 83.333333% {transform: translate(207.83px,27.198499px)} 100% {transform: translate(207.319122px,21.295601px)}}]]></style><path id="eWkpreINs0Y2" d="M1.13631,91.9919L8.68201,91.9275L9.3325,48.8142L0.941162,48.6854L0.941162,47.4941L18.3418,47.6873L33.7259,77.3418L44.4916,47.8161L63.4859,48.0093L63.4859,49.2006L56.7533,49.1362C56.7317,49.3294,56.6991,49.7372,56.6558,50.3597C56.6341,50.9608,56.5907,51.9053,56.5257,53.1932C56.4823,54.4811,56.4281,56.1661,56.3631,58.2483C56.298,60.3304,56.2221,62.9385,56.1354,66.0724C56.0487,69.1849,55.9619,72.8877,55.8752,77.1808C55.7885,81.4739,55.7017,86.4753,55.615,92.1851L63.616,92.1851L63.616,93.3765L35.775,93.3765L35.775,92.1851L43.4508,92.1851L44.2314,51.9053L28.7822,94.0526L10.3408,58.9566L9.8529,91.9275L17.0734,91.8632L17.0734,93.0545L1.13631,93.1833L1.13631,91.9919Z" fill="rgb(111,85,163)" stroke="none" stroke-width="1"/><path id="eWkpreINs0Y3" d="M92.4653,94.5034C92.9424,94.4605,93.3977,94.2243,93.8314,93.795C94.2,93.4301,94.5794,92.8506,94.9697,92.0563C95.36,91.2407,95.6853,90.0815,95.9455,88.5789L97.1489,88.7077C96.8453,90.4894,96.4333,91.8524,95.9129,92.7969C95.4142,93.7414,94.9047,94.4283,94.3843,94.8576C93.7772,95.3727,93.1375,95.6518,92.4653,95.6947C91.945,95.6947,91.2728,95.6196,90.4488,95.4693C89.6465,95.3191,88.8443,95.0508,88.042,94.6644C87.2397,94.2995,86.5025,93.8058,85.8303,93.1833C85.1582,92.5608,84.692,91.7666,84.4318,90.8006C83.5428,92.2817,82.3502,93.4838,80.8541,94.4068C79.3579,95.3513,77.6558,95.8235,75.7477,95.8235C74.7937,95.8235,73.8288,95.7162,72.853,95.5015C71.8773,95.2869,70.9774,94.9327,70.1535,94.439C69.3512,93.9453,68.6899,93.3013,68.1695,92.5071C67.6708,91.6914,67.4214,90.6826,67.4214,89.4805C67.4214,87.9779,67.7141,86.6792,68.2996,85.5845C68.9067,84.4683,69.709,83.5453,70.7064,82.8155C71.7038,82.0642,72.8422,81.5061,74.1215,81.1412C75.4008,80.7763,76.7234,80.5938,78.0895,80.5938C79.0218,80.5938,79.9217,80.7011,80.789,80.9158C81.678,81.1304,82.5779,81.5061,83.4886,82.0427C83.5319,80.948,83.6187,79.8532,83.7488,78.7585C83.9005,77.6638,84.0306,76.6442,84.1391,75.6997C84.2041,75.1416,84.2475,74.6908,84.2691,74.3474C84.3125,74.0039,84.345,73.7249,84.3667,73.5102C84.3884,73.2956,84.3992,73.1346,84.3992,73.0272C84.4209,72.9199,84.4318,72.8233,84.4318,72.7375C84.4318,70.7841,84.074,69.2279,83.3585,68.0687C82.6429,66.9096,81.6889,66.33,80.4963,66.33C79.9325,66.373,79.3579,66.4695,78.7725,66.6198C78.1871,66.7701,77.6558,66.9847,77.1788,67.2638C76.7018,67.5214,76.3115,67.8541,76.0079,68.2619C75.7043,68.6483,75.5526,69.1098,75.5526,69.6464C75.5526,70.226,75.7369,70.6875,76.1055,71.031C76.4741,71.3529,76.8752,71.6856,77.3089,72.0291C77.7642,72.3511,78.1762,72.7267,78.5448,73.156C78.9134,73.5853,79.0977,74.1756,79.0977,74.9269C79.0977,75.7211,78.9676,76.3866,78.7074,76.9232C78.4689,77.4384,78.1437,77.857,77.7317,78.1789C77.3197,78.5009,76.8535,78.737,76.3331,78.8873C75.8128,79.0161,75.2924,79.0805,74.772,79.0805C74.2299,79.0805,73.6878,78.9946,73.1457,78.8229C72.6253,78.6297,72.1483,78.3399,71.7147,77.9536C71.3027,77.5672,70.9558,77.0627,70.6739,76.4402C70.4137,75.8177,70.2836,75.0665,70.2836,74.1864C70.2836,73.0058,70.5763,71.8788,71.1617,70.8056C71.7472,69.7323,72.5169,68.7878,73.471,67.9721C74.425,67.1564,75.5092,66.5017,76.7234,66.008C77.9377,65.4929,79.1736,65.2138,80.4312,65.1709C81.6021,65.1709,82.8706,65.407,84.2366,65.8792C85.6243,66.3515,86.9145,67.1564,88.107,68.2941C89.3213,69.4318,90.3296,70.9558,91.1318,72.8662C91.9341,74.7767,92.3352,77.1701,92.3352,80.0464C92.3352,81.3988,92.281,82.6867,92.1726,83.9102C92.0859,85.1337,91.9883,86.2714,91.8799,87.3232C91.7715,88.3536,91.6631,89.298,91.5547,90.1566C91.4679,91.0153,91.4246,91.7558,91.4246,92.3783C91.4246,93.0008,91.4788,93.4945,91.5872,93.8594C91.7173,94.2243,91.9666,94.439,92.3352,94.5034L92.4653,94.5034ZM83.8789,89.0941C83.7488,88.3643,83.6512,87.6023,83.5861,86.808C83.5211,85.9924,83.4886,85.1767,83.4886,84.361L83.4886,83.4916C82.8814,82.9979,82.2201,82.633,81.5046,82.3969C80.8107,82.1608,80.1819,82.0427,79.6181,82.0427C78.2521,82.0427,77.2113,82.6008,76.4958,83.717C75.7802,84.8332,75.4225,86.3143,75.4225,88.1604C75.4225,88.9331,75.4984,89.6522,75.6501,90.3176C75.8236,90.9831,76.0513,91.5626,76.3331,92.0563C76.6367,92.5286,76.9945,92.9042,77.4065,93.1833C77.8401,93.4409,78.3171,93.5697,78.8375,93.5697C79.3579,93.5697,79.8566,93.4409,80.3337,93.1833C80.8324,92.9257,81.2986,92.593,81.7322,92.1851C82.1659,91.7558,82.567,91.2729,82.9356,90.7362C83.3043,90.1996,83.6187,89.6522,83.8789,89.0941Z" fill="rgb(111,85,163)" stroke="none" stroke-width="1"/><path id="eWkpreINs0Y4" d="M110.712,94.439C109.389,94.439,108.11,94.2673,106.874,93.9238C105.638,93.6019,104.51,93.1403,103.491,92.5393C102.494,91.9168,101.637,91.187,100.922,90.3498C100.228,89.4912,99.7617,88.5467,99.5232,87.5164C99.5232,86.9154,99.6099,86.3573,99.7834,85.8421C99.9785,85.3269,100.239,84.8762,100.564,84.4898C100.911,84.1034,101.312,83.8029,101.767,83.5882C102.223,83.3521,102.711,83.234,103.231,83.234C103.86,83.234,104.478,83.4165,105.085,83.7814C105.692,84.1463,106.212,84.7044,106.646,85.4557C106.993,86.0782,107.242,86.7007,107.394,87.3232C107.568,87.9457,107.698,88.5467,107.784,89.1263C107.893,89.7059,107.98,90.2532,108.045,90.7684C108.131,91.2621,108.261,91.6914,108.435,92.0563C108.63,92.4213,108.901,92.711,109.248,92.9257C109.595,93.1403,110.083,93.2477,110.712,93.2477C111.731,93.2477,112.609,93.1511,113.346,92.9579C114.083,92.7647,114.69,92.4964,115.168,92.1529C115.645,91.8095,115.991,91.4231,116.208,90.9938C116.447,90.5645,116.566,90.103,116.566,89.6093C116.566,89.0512,116.414,88.4823,116.111,87.9028C115.807,87.3232,115.363,86.7866,114.777,86.2929C114.192,85.7777,113.455,85.3162,112.566,84.9084C111.698,84.5005,110.679,84.2,109.508,84.0068C108.186,83.7921,106.96,83.4702,105.833,83.0409C104.727,82.6116,103.762,82.0427,102.938,81.3344C102.114,80.6045,101.464,79.7245,100.987,78.6941C100.531,77.6423,100.304,76.3866,100.304,74.9269C100.304,73.4673,100.629,72.1794,101.28,71.0632C101.952,69.9255,102.808,68.9703,103.849,68.1975C104.89,67.4248,106.061,66.8345,107.362,66.4266C108.663,66.0188,109.953,65.8149,111.232,65.8149C111.774,65.8149,112.403,65.8578,113.118,65.9436C113.834,66.008,114.56,66.1368,115.298,66.33C116.057,66.5232,116.805,66.7808,117.542,67.1028C118.279,67.4248,118.93,67.8326,119.493,68.3263C120.079,68.82,120.545,69.4103,120.892,70.0972C121.239,70.7841,121.412,71.5783,121.412,72.4799C121.412,72.995,121.315,73.478,121.12,73.9288C120.946,74.3796,120.697,74.7767,120.371,75.1201C120.068,75.4421,119.699,75.6997,119.266,75.8929C118.854,76.0861,118.42,76.1827,117.965,76.1827C116.924,76.1827,116.132,75.9573,115.59,75.5065C115.07,75.0557,114.69,74.4869,114.452,73.8C114.213,73.1131,114.051,72.3833,113.964,71.6105C113.899,70.8163,113.791,70.0757,113.639,69.3888C113.487,68.702,113.238,68.1331,112.891,67.6823C112.566,67.2316,112.013,67.0062,111.232,67.0062C109.758,67.1135,108.598,67.4677,107.752,68.0687C106.928,68.6483,106.516,69.4318,106.516,70.4192C106.516,71.0632,106.657,71.6964,106.939,72.3189C107.221,72.9199,107.622,73.478,108.142,73.9932C108.684,74.5084,109.335,74.9591,110.094,75.3455C110.853,75.7104,111.698,75.968,112.631,76.1183C113.91,76.3329,115.135,76.6764,116.306,77.1486C117.477,77.6208,118.507,78.2219,119.396,78.9517C120.306,79.6815,121.022,80.5401,121.542,81.5275C122.084,82.4935,122.355,83.5668,122.355,84.7474C122.355,85.928,122.041,87.0978,121.412,88.257C120.805,89.4161,119.97,90.4572,118.908,91.3802C117.845,92.2817,116.609,93.0116,115.2,93.5697C113.791,94.1492,112.294,94.439,110.712,94.439Z" fill="rgb(111,85,163)" stroke="none" stroke-width="1"/><path id="eWkpreINs0Y5" d="M124.957,92.3139L129.966,92.3139L130.812,50.7139L125.088,50.5851L125.088,49.3938L140.537,49.6514L139.886,79.982L154.88,66.1368L147.204,66.008L147.204,64.8167L163.271,65.1065L163.271,66.2656L156.409,66.2012L156.539,66.2656L148.212,73.9932L160.279,92.3783L164.605,92.3783L164.605,93.5697L145.676,93.5697L145.676,92.3783L149.286,92.3783L141.61,80.1108L139.886,81.7207L139.626,92.3139L142.618,92.3139L142.618,93.5053L124.957,93.5053L124.957,92.3139Z" fill="rgb(111,85,163)" stroke="none" stroke-width="1"/><path id="eWkpreINs0Y6" d="M188.413,105L168.378,104.517L168.378,98.3994L188.413,98.3994L188.413,105Z" fill="rgb(111,85,163)" stroke="none" stroke-width="1"/><path id="eWkpreINs0Y7" d="M194.072,92.2495L201.748,92.2495L201.943,49.0074L193.617,48.7498L193.617,47.5585L222.043,48.3957L222.043,49.587L215.051,49.3938C215.029,49.6729,214.996,50.1666,214.953,50.8749C214.91,51.5833,214.866,52.6136,214.823,53.9659C214.779,55.3183,214.714,57.0462,214.628,59.1498C214.563,61.2534,214.498,63.8508,214.433,66.9418C214.367,70.0113,214.292,73.6283,214.205,77.7926C214.118,81.9569,214.031,86.7758,213.945,92.2495L221.913,92.2495L221.913,93.4409L194.072,93.4409L194.072,92.2495Z" fill="rgb(111,85,163)" stroke="none" stroke-width="1"/><path id="eWkpreINs0Y8" d="M223.897,64.9455L240.225,64.5591L240.029,73.3492C240.42,72.3833,240.864,71.4603,241.363,70.5802C241.883,69.6786,242.469,68.8737,243.119,68.1653C243.77,67.457,244.496,66.8774,245.298,66.4266C246.101,65.9544,246.99,65.6646,247.965,65.5573C249.201,65.5573,250.361,65.7827,251.446,66.2334C252.53,66.6627,253.516,67.2638,254.405,68.0365C255.316,68.7878,256.118,69.6786,256.812,70.709C257.506,71.7393,258.091,72.834,258.568,73.9932C259.045,75.1523,259.392,76.3436,259.609,77.5672C259.826,78.7692,259.913,79.9498,259.869,81.109C259.848,82.311,259.815,83.5453,259.772,84.8118C259.728,85.9065,259.674,87.1193,259.609,88.4501C259.566,89.7595,259.501,91.0475,259.414,92.3139L264,92.3783L264,93.5697L245.949,93.1833L245.949,91.9919L249.494,92.0563C250.014,86.3251,250.145,80.5187,249.884,74.6371C249.949,71.954,249.798,70.0006,249.429,68.7771C249.082,67.5536,248.345,66.9203,247.217,66.8774C246.849,66.9847,246.361,67.1886,245.754,67.4892C245.147,67.7897,244.496,68.3156,243.802,69.0669C243.13,69.7967,242.447,70.8056,241.753,72.0935C241.081,73.36,240.485,75.0021,239.964,77.0198L239.639,91.9919L243.022,91.9919L243.022,93.1833L226.109,93.1833L226.109,91.9919L229.036,91.9919L229.687,66.008L223.897,66.1368L223.897,64.9455Z" fill="rgb(111,85,163)" stroke="none" stroke-width="1"/><path id="eWkpreINs0Y9" d="M63.3411,69.6602L63.3411,65.4747C63.3411,62.1926,59.2799,60.6555,57.1068,63.1152C56.5313,63.7665,56.2137,64.6037,56.2137,65.4728L56.2137,76.0144C56.2137,76.4168,59.177,74.5508,61.5933,72.9466C62.6927,72.2168,63.3411,70.9797,63.3411,69.6602Z" fill="rgb(255,255,255)" fill-opacity="0.8" stroke="rgb(0,0,0)" stroke-width="1"/><path id="eWkpreINs0Y10" d="M2.16463,69.6602L2.16463,65.4747C2.16463,62.1926,6.22583,60.6555,8.39897,63.1152C8.9744,63.7665,9.29199,64.6037,9.29199,65.4728L9.29199,76.0144C9.29199,76.4168,6.32876,74.5508,3.91241,72.9466C2.81308,72.2168,2.16463,70.9797,2.16463,69.6602Z" fill="rgb(255,255,255)" fill-opacity="0.8" stroke="rgb(0,0,0)" stroke-width="1"/><path id="eWkpreINs0Y11" d="M34.1808,57.2294L52.5502,58.7798C54.6215,58.9546,56.2138,60.6869,56.2138,62.7656L56.2138,64.5396L56.2138,72.8204L56.2138,78.2298C56.2138,79.9458,55.1192,81.4707,53.4933,82.0196L35.0811,88.2357C34.2868,88.5039,33.4284,88.5157,32.627,88.2695L12.1174,81.9691C10.4381,81.4532,9.29199,79.9021,9.29199,78.1454L9.29199,72.8204L9.29199,64.5396L9.29199,62.7936C9.29199,60.7033,10.9015,58.9654,12.9857,58.8054L33.5381,57.227C33.752,57.2105,33.967,57.2113,34.1808,57.2294Z" fill="rgb(255,255,255)" fill-opacity="0.8" stroke="none" stroke-width="1"/><path id="eWkpreINs0Y12" d="M9.29199,64.5396L9.29199,62.7936C9.29199,60.7033,10.9015,58.9654,12.9857,58.8054L33.5381,57.227C33.752,57.2105,33.967,57.2113,34.1808,57.2294L52.5502,58.7798C54.6215,58.9546,56.2138,60.6869,56.2138,62.7656L56.2138,64.5396M9.29199,64.5396L33.0511,69.2027C33.5845,69.3073,34.1335,69.3022,34.6648,69.1876L56.2138,64.5396M9.29199,64.5396L9.29199,72.8204M56.2138,64.5396L56.2138,72.8204M56.2138,72.8204L56.2138,78.2298C56.2138,79.9458,55.1192,81.4707,53.4933,82.0196L35.0811,88.2357C34.2868,88.5039,33.4284,88.5157,32.627,88.2695L12.1174,81.9691C10.4381,81.4532,9.29199,79.9021,9.29199,78.1454L9.29199,72.8204M56.2138,72.8204L34.7148,77.76C34.1513,77.8895,33.5665,77.8953,33.0005,77.777L9.29199,72.8204" fill="none" stroke="rgb(0,0,0)" stroke-width="1"/><g id="eWkpreINs0Y13_to" transform="translate(207.319122,21.295601)"><g id="eWkpreINs0Y13" transform="translate(-207.319122,-21.295601)"><circle id="eWkpreINs0Y14" r="16.013" transform="matrix(1 0 0 1 207.765 21.2428)" fill="rgb(107,79,161)" stroke="none" stroke-width="1"/><path id="eWkpreINs0Y15" d="M188.085,25.7002L190.252,22.6957M190.252,22.6957L186.959,20.9991M190.252,22.6957L192.811,22.0827" fill="none" stroke="rgb(55,55,55)" stroke-width="2" stroke-linecap="round" stroke-linejoin="round"/><path id="eWkpreINs0Y16" d="M205.609,23.8874L207.775,20.883M207.775,20.883L204.482,19.1863M207.775,20.883L210.334,20.2699" fill="none" stroke="rgb(55,55,55)" stroke-width="2" stroke-linecap="round" stroke-linejoin="round"/><path id="eWkpreINs0Y17" d="M192.826,7.50378L196.529,7.43895M196.529,7.43895L195.915,3.786M196.529,7.43895L198.553,9.12088" fill="none" stroke="rgb(55,55,55)" stroke-width="2" stroke-linecap="round" stroke-linejoin="round"/><path id="eWkpreINs0Y18" d="M224.047,10.0639L222.248,13.3017M222.248,13.3017L225.717,14.6005M222.248,13.3017L219.778,14.2106" fill="none" stroke="rgb(55,55,55)" stroke-width="2" stroke-linecap="round" stroke-linejoin="round"/><path id="eWkpreINs0Y19" d="M218.609,13.0852L216.81,16.323M216.81,16.323L220.278,17.6218M216.81,16.323L214.34,17.2319" fill="none" stroke="rgb(55,55,55)" stroke-width="2" stroke-linecap="round" stroke-linejoin="round"/><path id="eWkpreINs0Y20" d="M225.003,31.9972L221.306,31.7599M221.306,31.7599L221.62,35.4507M221.306,31.7599L219.426,29.9186" fill="none" stroke="rgb(55,55,55)" stroke-width="2" stroke-linecap="round" stroke-linejoin="round"/><path id="eWkpreINs0Y21" d="M211.445,1L212.542,4.53819M212.542,4.53819L215.878,2.9288M212.542,4.53819L211.492,6.95112" fill="none" stroke="rgb(55,55,55)" stroke-width="2" stroke-linecap="round" stroke-linejoin="round"/><path id="eWkpreINs0Y22" d="M219.153,37.6055L216.001,35.6608M216.001,35.6608L214.545,39.0672M216.001,35.6608L215.205,33.1525" fill="none" stroke="rgb(55,55,55)" stroke-width="2" stroke-linecap="round" stroke-linejoin="round"/><path id="eWkpreINs0Y23" d="M216.132,30.9586L212.979,29.0139M212.979,29.0139L211.524,32.4203M212.979,29.0139L212.184,26.5056" fill="none" stroke="rgb(55,55,55)" stroke-width="2" stroke-linecap="round" stroke-linejoin="round"/><path id="eWkpreINs0Y24" d="M204.247,39.6019L202.714,36.2297M202.714,36.2297L199.607,38.246M202.714,36.2297L203.453,33.7039" fill="none" stroke="rgb(55,55,55)" stroke-width="2" stroke-linecap="round" stroke-linejoin="round"/><path id="eWkpreINs0Y25" d="M206.664,32.3507L205.132,28.9785M205.132,28.9785L202.024,30.9948M205.132,28.9785L205.87,26.4527" fill="none" stroke="rgb(55,55,55)" stroke-width="2" stroke-linecap="round" stroke-linejoin="round"/><path id="eWkpreINs0Y26" d="M203.032,1.57379L205.044,4.68374M205.044,4.68374L207.821,2.2322M205.044,4.68374L204.686,7.29068" fill="none" stroke="rgb(55,55,55)" stroke-width="2" stroke-linecap="round" stroke-linejoin="round"/><path id="eWkpreINs0Y27" d="M204.578,10.0639L206.59,13.1739M206.59,13.1739L209.367,10.7223M206.59,13.1739L206.232,15.7808" fill="none" stroke="rgb(55,55,55)" stroke-width="2" stroke-linecap="round" stroke-linejoin="round"/><path id="eWkpreINs0Y28" d="M227.391,17.3151L224.755,19.918M224.755,19.918L227.72,22.138M224.755,19.918L222.13,20.0976" fill="none" stroke="rgb(55,55,55)" stroke-width="2" stroke-linecap="round" stroke-linejoin="round"/><path id="eWkpreINs0Y29" d="M211.629,41.5912L209.697,38.4305M209.697,38.4305L206.858,40.8098M209.697,38.4305L210.123,35.8336" fill="none" stroke="rgb(55,55,55)" stroke-width="2" stroke-linecap="round" stroke-linejoin="round"/><path id="eWkpreINs0Y30" d="M219.341,4.02133L218.223,7.55251M218.223,7.55251L221.881,8.13475M218.223,7.55251L215.983,8.93482" fill="none" stroke="rgb(55,55,55)" stroke-width="2" stroke-linecap="round" stroke-linejoin="round"/><path id="eWkpreINs0Y31" d="M196.073,34.2174L196.049,30.5134M196.049,30.5134L192.389,31.0865M196.049,30.5134L197.753,28.5084" fill="none" stroke="rgb(55,55,55)" stroke-width="2" stroke-linecap="round" stroke-linejoin="round"/><path id="eWkpreINs0Y32" d="M199.665,27.6109L199.641,23.9068M199.641,23.9068L195.982,24.48M199.641,23.9068L201.345,21.9019" fill="none" stroke="rgb(55,55,55)" stroke-width="2" stroke-linecap="round" stroke-linejoin="round"/><path id="eWkpreINs0Y33" d="M227.008,23.4486L223.703,25.1208M223.703,25.1208L225.847,28.1412M223.703,25.1208L221.149,24.4888" fill="none" stroke="rgb(55,55,55)" stroke-width="2" stroke-linecap="round" stroke-linejoin="round"/><path id="eWkpreINs0Y34" d="M219.945,22.2468L216.64,23.919M216.64,23.919L218.784,26.9394M216.64,23.919L214.086,23.287" fill="none" stroke="rgb(55,55,55)" stroke-width="2" stroke-linecap="round" stroke-linejoin="round"/><g id="eWkpreINs0Y35"><ellipse id="eWkpreINs0Y36" rx="0.760472" ry="1.51066" transform="matrix(0.984121 -0.177497 0.177497 0.984121 223.585997 12.894103)" fill="rgb(196,196,196)" stroke="none" stroke-width="1"/></g><g id="eWkpreINs0Y37"><ellipse id="eWkpreINs0Y38" rx="0.760472" ry="1.51066" transform="matrix(0.984121 -0.177497 0.177497 0.984121 218.146999 15.915435)" fill="rgb(196,196,196)" stroke="none" stroke-width="1"/></g><g id="eWkpreINs0Y39"><ellipse id="eWkpreINs0Y40" rx="0.968646" ry="1.33383" transform="matrix(0.984121 -0.177497 0.177497 0.984121 226.175999 20.008223)" fill="rgb(196,196,196)" stroke="none" stroke-width="1"/></g><g id="eWkpreINs0Y41"><ellipse id="eWkpreINs0Y42" rx="0.968646" ry="1.33383" transform="matrix(0.984121 -0.177497 0.177497 0.984121 225.571999 25.446577)" fill="rgb(196,196,196)" stroke="none" stroke-width="1"/></g><g id="eWkpreINs0Y43"><ellipse id="eWkpreINs0Y44" rx="0.968646" ry="1.33383" transform="matrix(0.984121 -0.177497 0.177497 0.984121 218.508999 24.244821)" fill="rgb(196,196,196)" stroke="none" stroke-width="1"/></g><g id="eWkpreINs0Y45"><ellipse id="eWkpreINs0Y46" rx="0.968646" ry="1.33383" transform="matrix(0.984121 -0.177497 0.177497 0.984121 219.529002 6.714454)" fill="rgb(196,196,196)" stroke="none" stroke-width="1"/></g><g id="eWkpreINs0Y47"><ellipse id="eWkpreINs0Y48" rx="0.968646" ry="1.33383" transform="matrix(0.438305 -0.898826 0.898826 0.438305 213.315508 3.060001)" fill="rgb(196,196,196)" stroke="none" stroke-width="1"/></g><g id="eWkpreINs0Y49"><ellipse id="eWkpreINs0Y50" rx="0.968646" ry="1.33383" transform="matrix(0.438305 -0.898826 0.898826 0.438305 205.460183 3.05918)" fill="rgb(196,196,196)" stroke="none" stroke-width="1"/></g><g id="eWkpreINs0Y51"><ellipse id="eWkpreINs0Y52" rx="0.968646" ry="1.33383" transform="matrix(0.438305 -0.898826 0.898826 0.438305 207.005963 11.549867)" fill="rgb(196,196,196)" stroke="none" stroke-width="1"/></g><g id="eWkpreINs0Y53"><ellipse id="eWkpreINs0Y54" rx="0.968646" ry="1.33383" transform="matrix(0.438305 -0.898826 0.898826 0.438305 195.187563 6.081188)" fill="rgb(196,196,196)" stroke="none" stroke-width="1"/></g><g id="eWkpreINs0Y55"><ellipse id="eWkpreINs0Y56" rx="0.968646" ry="1.33383" transform="matrix(0.216847 -0.976206 0.976206 0.216847 188.430394 22.765008)" fill="rgb(196,196,196)" stroke="none" stroke-width="1"/></g><g id="eWkpreINs0Y57"><ellipse id="eWkpreINs0Y58" rx="0.968646" ry="1.33383" transform="matrix(0.216847 -0.976206 0.976206 0.216847 205.952536 20.951856)" fill="rgb(196,196,196)" stroke="none" stroke-width="1"/></g><g id="eWkpreINs0Y59"><ellipse id="eWkpreINs0Y60" rx="0.968646" ry="1.33383" transform="matrix(0.438305 -0.898826 0.898826 0.438305 195.187983 31.459938)" fill="rgb(196,196,196)" stroke="none" stroke-width="1"/></g><g id="eWkpreINs0Y61"><ellipse id="eWkpreINs0Y62" rx="0.968646" ry="1.33383" transform="matrix(0.438305 -0.898826 0.898826 0.438305 198.77998 24.853691)" fill="rgb(196,196,196)" stroke="none" stroke-width="1"/></g><g id="eWkpreINs0Y63"><path id="eWkpreINs0Y64" d="M188.73,15.0174L192.311,14.0681M192.311,14.0681L190.841,10.6682M192.311,14.0681L194.678,15.2168" fill="none" stroke="rgb(55,55,55)" stroke-width="2"/><ellipse id="eWkpreINs0Y65" rx="0.968646" ry="1.33383" transform="matrix(0.895273 0.445518 -0.445518 0.895273 190.974017 13.238336)" fill="rgb(196,196,196)" stroke="none" stroke-width="1"/></g><g id="eWkpreINs0Y66"><path id="eWkpreINs0Y67" d="M196.586,15.6217L200.166,14.6724M200.166,14.6724L198.696,11.2725M200.166,14.6724L202.534,15.8211" fill="none" stroke="rgb(55,55,55)" stroke-width="2"/><ellipse id="eWkpreINs0Y68" rx="0.968646" ry="1.33383" transform="matrix(0.895273 0.445518 -0.445518 0.895273 198.830055 13.842639)" fill="rgb(196,196,196)" stroke="none" stroke-width="1"/></g><g id="eWkpreINs0Y69"><ellipse id="eWkpreINs0Y70" rx="0.968646" ry="1.33383" transform="matrix(0.052622 -0.998615 0.998615 0.052622 202.060133 38.298291)" fill="rgb(196,196,196)" stroke="none" stroke-width="1"/></g><g id="eWkpreINs0Y71"><ellipse id="eWkpreINs0Y72" rx="0.968646" ry="1.33383" transform="matrix(0.052622 -0.998615 0.998615 0.052622 204.477267 31.047072)" fill="rgb(196,196,196)" stroke="none" stroke-width="1"/></g><g id="eWkpreINs0Y73"><ellipse id="eWkpreINs0Y74" rx="0.968646" ry="1.33383" transform="matrix(0.052622 -0.998615 0.998615 0.052622 209.450205 40.105654)" fill="rgb(196,196,196)" stroke="none" stroke-width="1"/></g><g id="eWkpreINs0Y75"><ellipse id="eWkpreINs0Y76" rx="0.968646" ry="1.33383" transform="matrix(0.052622 -0.998615 0.998615 0.052622 216.096869 37.084877)" fill="rgb(196,196,196)" stroke="none" stroke-width="1"/></g><g id="eWkpreINs0Y77"><ellipse id="eWkpreINs0Y78" rx="0.968646" ry="1.33383" transform="matrix(0.052622 -0.998615 0.998615 0.052622 213.075155 30.437917)" fill="rgb(196,196,196)" stroke="none" stroke-width="1"/></g><g id="eWkpreINs0Y79"><ellipse id="eWkpreINs0Y80" rx="0.968646" ry="1.33383" transform="matrix(0.052622 -0.998615 0.998615 0.052622 222.743608 32.8545)" fill="rgb(196,196,196)" stroke="none" stroke-width="1"/></g></g></g></svg>